#!OML:ASF F:\VICON\USERDATA\Patient Classification 1\PLAYGROUND\JustinFriday\JustinFriday.ASF
:FULLY-SPECIFIED
:DEGREES
3242
root -26.8471 17.5854 -7.60357 247.861 76.9481 -116.592
lowerback 31.0474 0.90765 0.270497
upperback 8.62899 2.82953 5.93712
thorax -7.54036 1.72868 5.47976
lowerneck -2.21544 -6.82261 -10.7644
upperneck 28.1739 -8.48644 5.57833
head 10.0402 -4.12491 3.06232
rclavicle -1.62755e-014 -3.80176e-014
rhumerus 27.4024 17.8157 -75.2681
rradius 48.0564
rwrist 26.345
rhand -47.1875 -372.858
rfingers 7.12502
rthumb -19.8876 -401.86
lclavicle -1.62755e-014 -3.80176e-014
lhumerus 73.6021 -14.2965 57.2915
lradius 29.4284
lwrist -22.0533
lhand -20.2996 -3.55543
lfingers 7.12502
lthumb 6.05062 26.3382
rfemur -10.215 -3.30145 38.2905
rtibia 23.3067
rfoot -11.7873 -6.87398
rtoes -6.71913
lfemur -77.5975 18.0728 -9.05224
ltibia 100.535
lfoot -27.3394 -21.0286
ltoes -12.6882
3243
root -26.8586 17.621 -7.72633 250.714 74.6166 -114.541
lowerback 29.7928 -0.382159 3.98044
upperback 8.44519 2.26597 6.25682
thorax -6.99709 1.44527 3.88262
lowerneck -2.4987 -6.88388 -10.4801
upperneck 28.2708 -8.53183 5.31338
head 10.1067 -4.14249 2.90658
rclavicle 3.73342e-014 5.80203e-014
rhumerus 28.1456 18.7394 -74.9302
rradius 47.4679
rwrist 25.9943
rhand -46.6226 -372.819
rfingers 7.12502
rthumb -19.3445 -401.877
lclavicle 3.73342e-014 5.80203e-014
lhumerus 72.015 -13.9657 59.0506
lradius 29.6761
lwrist -23.2952
lhand -19.3878 -4.60426
lfingers 7.12502
lthumb 6.93082 25.2623
rfemur -10.6357 -5.16677 40.4051
rtibia 21.8047
rfoot -11.2457 -5.00552
rtoes -7.78608
lfemur -78.6007 17.4489 -6.98846
ltibia 101.161
lfoot -25.2622 -22.2163
ltoes -3.00472
3244
root -26.8857 17.6115 -7.69566 250.752 73.6339 -115.395
lowerback 28.1007 -0.448528 4.45433
upperback 8.43386 2.22327 6.8139
thorax -6.20495 1.43039 4.24767
lowerneck -2.8497 -6.98534 -9.8151
upperneck 28.0283 -8.6894 5.06487
head 10.047 -4.17298 2.67635
rclavicle 4.57702e-014 6.1822e-014
rhumerus 29.1191 18.7852 -74.6051
rradius 46.3381
rwrist 25.483
rhand -46.1238 -373.131
rfingers 7.12502
rthumb -18.8648 -402.236
lclavicle 4.57702e-014 6.1822e-014
lhumerus 71.6698 -14.5509 52.8117
lradius 32.5341
lwrist -16.479
lhand -18.6093 -4.2487
lfingers 7.12502
lthumb 7.68225 25.5918
rfemur -10.895 -4.72752 41.4076
rtibia 20.3458
rfoot -10.6602 -5.08219
rtoes -7.14719
lfemur -79.8431 17.8404 -6.3338
ltibia 101.663
lfoot -25.9095 -21.5745
ltoes -5.0644
3245
root -26.8902 17.6382 -7.72446 250.008 73.473 -115.177
lowerback 28.5606 -0.440193 4.83955
upperback 8.64807 2.45249 7.14468
thorax -6.19648 1.56195 4.32357
lowerneck -2.60121 -7.29168 -9.31822
upperneck 27.4019 -9.13146 4.74488
head 9.76432 -4.36951 2.43704
rclavicle 1.39149e-015 4.53229e-014
rhumerus 29.7422 18.9582 -73.7996
rradius 45.2781
rwrist 24.3334
rhand -45.9521 -373.67
rfingers 7.12502
rthumb -18.6997 -402.791
lclavicle 1.39149e-015 4.53229e-014
lhumerus 70.6174 -15.1471 59.7988
lradius 30.7093
lwrist -22.5088
lhand -19.0488 -4.60991
lfingers 7.12502
lthumb 7.25805 25.2456
rfemur -9.18433 -4.72685 41.1616
rtibia 19.0698
rfoot -10.438 -4.7177
rtoes -5.32715
lfemur -78.3325 17.6316 -6.04491
ltibia 102.049
lfoot -27.8074 -19.4207
ltoes -9.29241
3246
root -26.9129 17.7149 -7.74788 248.594 74.8872 -116.647
lowerback 28.2366 -0.141183 3.68108
upperback 8.49779 2.45535 7.09625
thorax -6.25261 1.54885 4.93716
lowerneck -2.69371 -7.1921 -11.2397
upperneck 27.8092 -9.108 6.20495
head 10.1132 -4.3988 3.27547
rclavicle 5.9039e-014 7.03698e-014
rhumerus 29.8228 19.6956 -72.7301
rradius 44.809
rwrist 23.4738
rhand -45.4646 -374.285
rfingers 7.12502
rthumb -18.2307 -403.451
lclavicle 5.9039e-014 7.03698e-014
lhumerus 69.4808 -16.0595 57.4533
lradius 32.6728
lwrist -19.8416
lhand -19.1473 -3.47181
lfingers 7.12502
lthumb 7.163 26.387
rfemur -8.52891 -5.31382 39.4234
rtibia 17.666
rfoot -9.93525 -3.57887
rtoes -4.4997
lfemur -77.2491 16.9615 -7.5604
ltibia 102.131
lfoot -29.5441 -15.889
ltoes -14.2801
3247
root -26.9516 17.8098 -7.77424 246.01 76.7361 -119.872
lowerback 27.2458 0.206454 3.75505
upperback 8.34522 2.6729 6.05193
thorax -5.90487 1.62915 3.64889
lowerneck -2.56779 -7.76673 -11.7729
upperneck 27.5922 -10.2547 7.77807
head 10.2448 -4.83285 3.79893
rclavicle 3.77691e-015 -3.57812e-015
rhumerus 29.1598 18.0912 -72.7996
rradius 44.8478
rwrist 23.2367
rhand -45.0382 -374.789
rfingers 7.12502
rthumb -17.8204 -403.993
lclavicle 3.77691e-015 -3.57812e-015
lhumerus 70.3773 -17.9766 53.5805
lradius 34.189
lwrist -16.2345
lhand -18.6771 -3.4301
lfingers 7.12502
lthumb 7.61684 26.4127
rfemur -8.34564 -6.13621 37.1821
rtibia 15.9172
rfoot -9.23913 -2.29762
rtoes -4.34333
lfemur -76.7847 16.2185 -9.68828
ltibia 102.134
lfoot -30.3377 -12.9888
ltoes -18.2464
3248
root -26.9688 17.8013 -7.74095 248.915 74.1485 -116.649
lowerback 26.7227 -0.391073 5.97028
upperback 8.47075 2.59621 7.07718
thorax -5.46163 1.63059 3.55284
lowerneck -2.12348 -7.70337 -12.8829
upperneck 26.8213 -10.2682 8.47219
head 9.98642 -4.90904 4.23326
rclavicle -1.31198e-014 -5.725e-014
rhumerus 29.6754 18.4086 -73.3303
rradius 43.5667
rwrist 23.3488
rhand -44.8423 -374.465
rfingers 7.12502
rthumb -17.6319 -403.685
lclavicle -1.31198e-014 -5.725e-014
lhumerus 68.6795 -17.4557 57.5148
lradius 33.3567
lwrist -18.5155
lhand -17.9512 -5.40978
lfingers 7.12502
lthumb 8.31744 24.4065
rfemur -7.52191 -5.716 40.1674
rtibia 14.5716
rfoot -8.46403 -2.60805
rtoes -3.66896
lfemur -76.9088 17.1778 -6.28676
ltibia 102.966
lfoot -24.746 -20.7556
ltoes 5.29271
3249
root -26.9873 17.8029 -7.72765 250.214 72.7456 -115.036
lowerback 26.5737 -0.61106 7.31278
upperback 8.426 2.68808 7.28594
thorax -5.38848 1.68966 2.99606
lowerneck -2.72402 -7.63864 -10.502
upperneck 26.7588 -10.1029 7.18668
head 9.83297 -4.71167 3.37608
rclavicle -3.77691e-014 -7.59357e-014
rhumerus 29.8696 18.1823 -73.9072
rradius 42.6446
rwrist 22.5892
rhand -44.15 -374.334
rfingers 7.12502
rthumb -16.9656 -403.613
lclavicle -3.77691e-014 -7.59357e-014
lhumerus 67.9762 -18.192 55.7335
lradius 34.4456
lwrist -16.1688
lhand -20.6275 0.25866
lfingers 7.12502
lthumb 5.734 30.1611
rfemur -6.71759 -4.93135 41.7326
rtibia 13.3695
rfoot -7.61733 -2.91508
rtoes -2.6483
lfemur -76.2818 17.6034 -4.2784
ltibia 103.587
lfoot -23.8064 -20.9624
ltoes 9.62031
3250
root -27.0257 17.8782 -7.77071 248.791 74.9177 -116.601
lowerback 26.5319 -0.0758689 6.23266
upperback 8.19804 2.95694 6.46931
thorax -5.6341 1.78058 2.61471
lowerneck -2.4458 -8.76669 -12.149
upperneck 26.0489 -11.8707 8.58394
head 9.92093 -5.58531 3.92974
rclavicle 4.55217e-014 7.83212e-014
rhumerus 29.6107 17.6914 -72.7742
rradius 42.5171
rwrist 20.7106
rhand -43.4304 -373.987
rfingers 7.12502
rthumb -16.2728 -403.324
lclavicle 4.55217e-014 7.83212e-014
lhumerus 67.7825 -19.3818 54.0264
lradius 35.8084
lwrist -11.3569
lhand -15.9772 -7.78513
lfingers 7.12502
lthumb 10.2222 21.9465
rfemur -6.14253 -5.13598 39.2038
rtibia 11.9809
rfoot -6.88472 -1.92333
rtoes -2.18843
lfemur -74.7996 16.8745 -6.62314
ltibia 103.635
lfoot -25.6488 -17.0384
ltoes 6.1762
3251
root -27.0501 17.9307 -7.79567 247.308 76.1796 -118.054
lowerback 26.4297 0.451379 5.56499
upperback 7.87357 3.46418 6.6729
thorax -6.00343 2.00302 3.06181
lowerneck -1.68081 -9.34417 -10.8975
upperneck 25.5096 -12.4508 6.98597
head 9.45697 -5.89999 3.12663
rclavicle 1.19271e-015 -1.59028e-015
rhumerus 29.2387 16.8904 -72.6786
rradius 41.1756
rwrist 21.6679
rhand -43.3485 -373.413
rfingers 7.12502
rthumb -16.1939 -402.757
lclavicle 1.19271e-015 -1.59028e-015
lhumerus 66.6983 -21.329 55.0431
lradius 37.0685
lwrist -12.0065
lhand -18.7547 -4.18336
lfingers 7.12502
lthumb 7.54189 25.6622
rfemur -5.5077 -5.73695 37.6309
rtibia 10.6964
rfoot -6.30344 -0.849062
rtoes -1.7761
lfemur -73.5298 16.2802 -8.17465
ltibia 103.826
lfoot -26.9665 -12.5562
ltoes 3.08298
3252
root -27.0617 17.9548 -7.79373 246.98 76.272 -117.999
lowerback 26.4705 0.116964 4.8747
upperback 7.90018 2.84466 6.58918
thorax -6.0071 1.70288 3.55566
lowerneck -2.63282 -8.80856 -10.4712
upperneck 26.2395 -11.6904 6.87557
head 9.77684 -5.48813 3.0709
rclavicle -9.54166e-015 -5.60573e-014
rhumerus 29.9978 17.5763 -74.084
rradius 40.07
rwrist 22.5542
rhand -42.9129 -373.146
rfingers 7.12502
rthumb -15.7745 -402.524
lclavicle -9.54166e-015 -5.60573e-014
lhumerus 63.6427 -20.1803 58.3335
lradius 37.5073
lwrist -13.8273
lhand -17.7248 -5.38229
lfingers 7.12502
lthumb 8.53596 24.4252
rfemur -4.61072 -5.64423 37.4246
rtibia 9.62809
rfoot -5.55117 -0.724666
rtoes 0.121525
lfemur -72.3207 16.3641 -8.2
ltibia 104.136
lfoot -27.0618 -10.0919
ltoes -0.135387
3253
root -27.074 17.9514 -7.76715 248.951 75.0528 -115.477
lowerback 26.57 0.567995 7.01945
upperback 7.80885 4.0811 7.06088
thorax -6.08776 2.30838 2.47399
lowerneck -1.85137 -9.75302 -10.3236
upperneck 24.7152 -13.1524 7.29292
head 9.25271 -6.16615 3.04974
rclavicle 9.14409e-015 -1.59028e-015
rhumerus 29.5292 15.7744 -73.1347
rradius 38.7758
rwrist 22.1082
rhand -42.8208 -374.589
rfingers 7.12502
rthumb -15.6858 -403.973
lclavicle 9.14409e-015 -1.59028e-015
lhumerus 64.0941 -23.2067 53.7139
lradius 41.7217
lwrist -7.63799
lhand -18.1956 -3.35446
lfingers 7.12502
lthumb 8.08153 26.471
rfemur -3.13916 -5.4927 38.8977
rtibia 7.67715
rfoot -4.46774 -0.46733
rtoes 2.68135
lfemur -71.3073 17.0479 -6.1331
ltibia 104.588
lfoot -26.1639 -10.6021
ltoes -1.86111
3254
root -27.1044 18.0272 -7.78924 247.908 77.1359 -116.641
lowerback 26.3446 1.02368 5.72765
upperback 7.73137 4.10988 5.83497
thorax -6.05489 2.29114 1.84241
lowerneck -2.09985 -9.91651 -8.62516
upperneck 23.9391 -13.6961 7.95742
head 8.9887 -6.23768 2.93695
rclavicle 1.86858e-014 5.1684e-014
rhumerus 29.5228 14.161 -75.0868
rradius 37.9462
rwrist 22.7829
rhand -42.1906 -375.047
rfingers 7.12502
rthumb -15.0788 -404.478
lclavicle 1.86858e-014 5.1684e-014
lhumerus 63.602 -24.1928 53.5728
lradius 42.1167
lwrist -7.32966
lhand -17.5054 -4.69989
lfingers 7.12502
lthumb 8.74761 25.0988
rfemur -1.98476 -4.83271 36.575
rtibia 5.21119
rfoot -3.1146 -0.0370841
rtoes 4.22249
lfemur -69.6397 16.3353 -7.81771
ltibia 104.162
lfoot -24.9292 -10.5934
ltoes 8.08107
3255
root -27.13 18.0934 -7.8153 246.101 78.238 -118.293
lowerback 26.0712 0.608211 4.41511
upperback 7.68882 3.22517 6.03352
thorax -6.0485 1.86322 3.08565
lowerneck -1.99254 -9.47312 -10.7401
upperneck 23.9007 -12.9322 8.08871
head 9.05176 -6.06046 3.40331
rclavicle -8.34896e-015 -6.36111e-015
rhumerus 30.3326 17.4009 -73.0033
rradius 37.6978
rwrist 20.6301
rhand -41.6214 -375.724
rfingers 7.12502
rthumb -14.5304 -405.195
lclavicle -8.34896e-015 -6.36111e-015
lhumerus 60.6339 -22.8604 55.3336
lradius 42.2742
lwrist -7.99622
lhand -16.4356 -6.51945
lfingers 7.12502
lthumb 9.77989 23.2335
rfemur -1.20997 -4.6247 35.1711
rtibia 3.90186
rfoot -2.26514 0.00416648
rtoes 4.84026
lfemur -68.0468 15.4237 -8.45362
ltibia 103.832
lfoot -23.2014 -11.2152
ltoes 14.6731
3256
root -27.1429 18.1276 -7.83035 245.015 79.0606 -119.128
lowerback 26.1242 2.08916 4.0146
upperback 7.43467 5.02857 6.1163
thorax -6.44707 2.71589 2.84024
lowerneck -1.07153 -10.4143 -7.84246
upperneck 22.1298 -14.2933 7.3007
head 8.12586 -6.59001 2.59652
rclavicle 2.66371e-014 3.97569e-014
rhumerus 29.4084 14.0679 -72.5901
rradius 36.3051
rwrist 20.7966
rhand -41.3817 -376.967
rfingers 7.12502
rthumb -14.2994 -406.455
lclavicle 2.66371e-014 3.97569e-014
lhumerus 61.465 -26.3737 56.5006
lradius 43.155
lwrist -8.41452
lhand -16.6188 -5.01559
lfingers 7.12502
lthumb 9.60315 24.7455
rfemur -1.59672 -4.3492 34.1598
rtibia 5.15932
rfoot -2.63852 -0.239441
rtoes 4.96695
lfemur -66.6357 15.325 -9.00568
ltibia 103.572
lfoot -22.2783 -10.0863
ltoes 13.8426
